<svg xmlns="http://www.w3.org/2000/svg" width="32" height="32" viewBox="0 0 32 32" fill="none">
  <path d="M29.8842 6.6068C29.6312 5.9123 29.1965 5.29745 28.6241 4.83414C28.0518 4.37083 27.3661 4.07537 26.6409 3.98437C24.3323 3.73437 16.0002 3.73437 16.0002 3.73437C16.0002 3.73437 7.66772 3.73437 5.35959 3.98437C4.63441 4.07537 3.94865 4.37083 3.3763 4.83414C2.80394 5.29745 2.36929 5.9123 2.11621 6.6068C1.86621 8.94058 1.86621 13.7344 1.86621 13.7344C1.86621 13.7344 1.86621 18.5281 2.11621 20.8619C2.36929 21.5564 2.80394 22.1713 3.3763 22.6346C3.94865 23.0979 4.63441 23.3933 5.35959 23.4844C7.66772 23.7344 16.0002 23.7344 16.0002 23.7344C16.0002 23.7344 24.3328 23.7344 26.6409 23.4844C27.3661 23.3933 28.0518 23.0979 28.6241 22.6346C29.1965 22.1713 29.6312 21.5564 29.8842 20.8619C30.1342 18.5281 30.1342 13.7344 30.1342 13.7344C30.1342 13.7344 30.1342 8.94058 29.8842 6.6068Z" fill="#FF0000"/>
  <path d="M13.1458 17.9063L20.5677 13.7344L13.1458 9.5625V17.9063Z" fill="white"/>
</svg> 